<svg width="29" height="29" viewBox="0 0 29 29" fill="none" xmlns="http://www.w3.org/2000/svg">
<mask id="path-1-inside-1_465_669" fill="white">
<path d="M18.5 6C12.701 6 8 10.701 8 16.5C8 22.299 12.701 27 18.5 27C19.7195 27 20.8896 26.7895 21.9785 26.4072L27.7051 28.7002L28.4561 29.001L28.3887 28.1943L27.8203 21.334C28.5724 19.8868 29 18.2437 29 16.5C29 10.701 24.299 6 18.5 6Z"/>
</mask>
<path d="M18.5 6C12.701 6 8 10.701 8 16.5C8 22.299 12.701 27 18.5 27C19.7195 27 20.8896 26.7895 21.9785 26.4072L27.7051 28.7002L28.4561 29.001L28.3887 28.1943L27.8203 21.334C28.5724 19.8868 29 18.2437 29 16.5C29 10.701 24.299 6 18.5 6Z" fill="#03C3FF"/>
<path d="M21.9785 26.4072L21.316 24.5202L22.0247 24.2713L22.722 24.5505L21.9785 26.4072ZM27.7051 28.7002L28.4485 26.8435L28.4487 26.8436L27.7051 28.7002ZM28.4561 29.001L30.4491 28.8345L30.7187 32.0617L27.7124 30.8576L28.4561 29.001ZM28.3887 28.1943L26.3956 28.3608L26.3955 28.3595L28.3887 28.1943ZM27.8203 21.334L25.8271 21.4991L25.7795 20.9239L26.0457 20.4117L27.8203 21.334ZM18.5 6V8C13.8056 8 10 11.8056 10 16.5H8H6C6 9.59644 11.5964 4 18.5 4V6ZM8 16.5H10C10 21.1944 13.8056 25 18.5 25V27V29C11.5964 29 6 23.4036 6 16.5H8ZM18.5 27V25C19.4878 25 20.4341 24.8298 21.316 24.5202L21.9785 26.4072L22.6411 28.2943C21.3451 28.7493 19.9513 29 18.5 29V27ZM21.9785 26.4072L22.722 24.5505L28.4485 26.8435L27.7051 28.7002L26.9616 30.5569L21.2351 28.2639L21.9785 26.4072ZM27.7051 28.7002L28.4487 26.8436L29.1997 27.1444L28.4561 29.001L27.7124 30.8576L26.9615 30.5568L27.7051 28.7002ZM28.4561 29.001L26.463 29.1675L26.3956 28.3608L28.3887 28.1943L30.3817 28.0278L30.4491 28.8345L28.4561 29.001ZM28.3887 28.1943L26.3955 28.3595L25.8271 21.4991L27.8203 21.334L29.8135 21.1689L30.3818 28.0292L28.3887 28.1943ZM27.8203 21.334L26.0457 20.4117C26.6543 19.2406 27 17.9129 27 16.5H29H31C31 18.5745 30.4906 20.533 29.595 22.2563L27.8203 21.334ZM29 16.5H27C27 11.8056 23.1944 8 18.5 8V6V4C25.4036 4 31 9.59644 31 16.5H29Z" fill="black" mask="url(#path-1-inside-1_465_669)"/>
<mask id="path-3-inside-2_465_669" fill="white">
<path d="M10.5 0C16.299 0 21 4.70101 21 10.5C21 16.299 16.299 21 10.5 21C9.28047 21 8.11039 20.7895 7.02148 20.4072L1.29492 22.7002L0.543945 23.001L0.611328 22.1943L1.17969 15.334C0.42757 13.8868 0 12.2437 0 10.5C0 4.70101 4.70101 0 10.5 0Z"/>
</mask>
<path d="M10.5 0C16.299 0 21 4.70101 21 10.5C21 16.299 16.299 21 10.5 21C9.28047 21 8.11039 20.7895 7.02148 20.4072L1.29492 22.7002L0.543945 23.001L0.611328 22.1943L1.17969 15.334C0.42757 13.8868 0 12.2437 0 10.5C0 4.70101 4.70101 0 10.5 0Z" fill="white"/>
<path d="M7.02148 20.4072L7.68402 18.5202L6.97533 18.2713L6.27805 18.5505L7.02148 20.4072ZM1.29492 22.7002L0.551485 20.8435L0.551308 20.8436L1.29492 22.7002ZM0.543945 23.001L-1.44911 22.8345L-1.7187 26.0617L1.28756 24.8576L0.543945 23.001ZM0.611328 22.1943L2.60439 22.3608L2.6045 22.3595L0.611328 22.1943ZM1.17969 15.334L3.17286 15.4991L3.22052 14.9239L2.95433 14.4117L1.17969 15.334ZM10.5 0V2C15.1944 2 19 5.80558 19 10.5H21H23C23 3.59644 17.4036 -2 10.5 -2V0ZM21 10.5H19C19 15.1944 15.1944 19 10.5 19V21V23C17.4036 23 23 17.4036 23 10.5H21ZM10.5 21V19C9.51222 19 8.56588 18.8298 7.68402 18.5202L7.02148 20.4072L6.35894 22.2943C7.65489 22.7493 9.04871 23 10.5 23V21ZM7.02148 20.4072L6.27805 18.5505L0.551485 20.8435L1.29492 22.7002L2.03836 24.5569L7.76492 22.2639L7.02148 20.4072ZM1.29492 22.7002L0.551308 20.8436L-0.199668 21.1444L0.543945 23.001L1.28756 24.8576L2.03854 24.5568L1.29492 22.7002ZM0.543945 23.001L2.537 23.1675L2.60439 22.3608L0.611328 22.1943L-1.38173 22.0278L-1.44911 22.8345L0.543945 23.001ZM0.611328 22.1943L2.6045 22.3595L3.17286 15.4991L1.17969 15.334L-0.813484 15.1689L-1.38184 22.0292L0.611328 22.1943ZM1.17969 15.334L2.95433 14.4117C2.3457 13.2406 2 11.9129 2 10.5H0H-2C-2 12.5745 -1.49056 14.533 -0.594958 16.2563L1.17969 15.334ZM0 10.5H2C2 5.80558 5.80558 2 10.5 2V0V-2C3.59644 -2 -2 3.59644 -2 10.5H0Z" fill="black" mask="url(#path-3-inside-2_465_669)"/>
</svg>
