<svg width="217" height="75" viewBox="0 0 217 75" fill="none" xmlns="http://www.w3.org/2000/svg">
<path fill-rule="evenodd" clip-rule="evenodd" d="M0 72.2439H20.0805V43.8137C20.0805 38.3481 21.8062 34.4038 26.8783 34.4038C32.9612 34.4038 33.4648 38.8537 33.4648 43.8137V72.2439H53.5465V43.8137C53.5465 38.3481 55.2665 34.4038 60.3374 34.4038C66.426 34.4038 66.9319 38.8537 66.9319 43.8137V72.2439H87.0147V36.2268C87.0147 27.7244 82.4463 18.4181 68.958 18.4181C55.8809 18.4181 51.8219 26.0061 51.0064 26.6108C48.5783 21.3513 42.4909 18.4181 36.8101 18.4181C29.5086 18.4181 23.6302 20.6419 19.5734 26.7133H19.3712V19.7298H0V72.2439Z" fill="white"/>
<mask id="mask0_243_7077" style="mask-type:luminance" maskUnits="userSpaceOnUse" x="87" y="18" width="58" height="56">
<path fill-rule="evenodd" clip-rule="evenodd" d="M87.9922 18.4165H144.88V73.5628H87.9922V18.4165Z" fill="white"/>
</mask>
<g mask="url(#mask0_243_7077)">
<path fill-rule="evenodd" clip-rule="evenodd" d="M142.448 38.9591C142.448 28.8341 142.651 18.4165 117.497 18.4165C105.028 18.4165 91.0313 20.8441 90.4237 35.6172H109.085C109.184 33.3888 110.396 30.2529 116.585 30.2529C119.834 30.2529 123.171 31.5726 123.171 35.1105C123.171 38.4502 120.442 39.2609 117.701 39.7642C107.461 41.6908 87.9922 41.0793 87.9922 57.6765C87.9922 68.7067 96.4072 73.5631 106.547 73.5631C113.032 73.5631 119.221 72.1466 123.484 67.2857H123.683C123.58 68.7067 123.886 70.8269 124.395 72.2434H144.88C142.651 68.9071 142.448 64.4561 142.448 60.5072V38.9591ZM123.171 53.5283C122.873 58.9917 119.324 61.721 114.759 61.721C111.11 61.721 108.476 59.2957 108.476 56.868C108.476 53.3257 110.807 52.2155 115.267 51.1998C118.011 50.5963 120.743 49.8869 123.171 48.6731V53.5283Z" fill="white"/>
</g>
<path fill-rule="evenodd" clip-rule="evenodd" d="M198.365 19.7297H177.887L169.567 51.7068H169.365L161.146 19.7297H139.953L157.198 72.2438H180.92L198.365 19.7297Z" fill="white"/>
<mask id="mask1_243_7077" style="mask-type:luminance" maskUnits="userSpaceOnUse" x="0" y="0" width="217" height="74">
<path fill-rule="evenodd" clip-rule="evenodd" d="M0 73.5626H216.665V0.000366211H0V73.5626Z" fill="white"/>
</mask>
<g mask="url(#mask1_243_7077)">
<path fill-rule="evenodd" clip-rule="evenodd" d="M196.586 14.0642H216.664V-0.000610352H196.586V14.0642ZM196.587 72.2442H216.664V19.7302H196.587V72.2442Z" fill="white"/>
</g>
</svg>
