<svg width="240" height="324" viewBox="0 0 240 324" fill="none" xmlns="http://www.w3.org/2000/svg">
<path fill-rule="evenodd" clip-rule="evenodd" d="M47.4645 286.051C75.0656 290.245 103.167 290.456 130.998 288.933C142.012 288.108 153.06 287.96 164.065 289.014C170.568 289.498 199.081 291.679 201.411 285.852C199.944 254.825 196.975 223.533 187.865 193.693C184.119 183.097 180.901 174.303 173.589 165.535C171.284 163.141 166.315 158.12 163.467 156.482C161 155.064 159.969 155.57 158.552 153.174C157.144 150.527 156.106 146.107 154.107 144.24C152.072 142.338 149.056 143.018 145.317 143.631C146.004 134.346 141.72 131.981 135.818 130.216C125.444 126.255 115.198 128.245 112.587 140.879C107.746 140.879 105.026 142.963 102.086 144.966C100.884 145.784 101.72 147.87 100.285 148.513C97.6289 149.459 92.9354 149.228 90.3781 150.392C78.7492 155.686 68.3917 163.364 61.5897 174.576C46.3403 198.515 35.8652 248.942 37.6779 277.315C36.8837 278.561 37.9819 280.348 38.2611 281.687C38.6135 282.853 39.7545 283.628 40.9454 283.495C42.6072 285.283 45.1775 285.681 47.4645 286.051Z" fill="white"/>
<path fill-rule="evenodd" clip-rule="evenodd" d="M149.635 204.179C148.748 204.175 147.86 204.176 146.973 204.181L146.307 204.186C145.193 204.195 144.238 204.136 143.362 204.534C142.726 204.824 143.007 205.309 143.61 205.527C144.525 205.857 145.672 205.691 146.723 205.654C147.832 205.616 148.941 205.584 150.051 205.558C152.201 205.509 154.351 205.477 156.502 205.472C158.649 205.468 160.799 205.478 162.945 205.496C165.129 205.514 167.403 205.619 169.575 205.503C169.873 205.487 169.941 205.284 169.646 205.232C167.6 204.867 165.297 204.749 163.153 204.609C160.94 204.465 158.728 204.363 156.502 204.297C154.216 204.23 151.926 204.187 149.635 204.179Z" fill="#231F20"/>
<path fill-rule="evenodd" clip-rule="evenodd" d="M170.998 202.747C171.002 202.593 171.001 202.44 170.994 202.287L170.988 202.172C170.977 201.979 171.053 201.814 170.539 201.663C170.166 201.553 169.541 201.601 169.26 201.706C168.834 201.864 169.048 202.062 169.095 202.243C169.145 202.435 169.186 202.627 169.219 202.819C169.283 203.19 169.323 203.562 169.33 203.933C169.336 204.304 169.322 204.676 169.299 205.047C169.276 205.424 169.14 205.817 169.291 206.192C169.311 206.244 169.572 206.255 169.64 206.205C170.11 205.851 170.263 205.453 170.443 205.082C170.628 204.7 170.76 204.318 170.845 203.933C170.932 203.538 170.987 203.142 170.998 202.747Z" fill="#231F20"/>
<path fill-rule="evenodd" clip-rule="evenodd" d="M143.002 204.576C142.998 204.729 142.999 204.882 143.006 205.036L143.012 205.151C143.023 205.343 142.947 205.508 143.461 205.66C143.834 205.769 144.459 205.721 144.74 205.617C145.166 205.459 144.952 205.26 144.905 205.079C144.855 204.887 144.814 204.695 144.781 204.504C144.717 204.132 144.677 203.761 144.67 203.389C144.664 203.018 144.678 202.647 144.701 202.276C144.724 201.898 144.86 201.505 144.709 201.13C144.689 201.078 144.428 201.067 144.36 201.118C143.89 201.471 143.737 201.869 143.557 202.24C143.372 202.622 143.24 203.004 143.155 203.389C143.068 203.784 143.013 204.18 143.002 204.576Z" fill="#231F20"/>
<path fill-rule="evenodd" clip-rule="evenodd" d="M161.71 155.781C161.54 155.686 161.689 155.444 161.86 155.524C170.045 159.365 176.325 166.105 180.743 173.892C185.318 181.956 187.926 191.111 190.174 200.058L190.255 200.382C192.652 209.954 194.691 219.625 196.526 229.319C198.384 239.137 199.876 249.015 201.076 258.934C201.67 263.839 202.199 268.752 202.612 273.675C202.818 276.135 203.005 278.597 203.174 281.06C203.241 282.045 203.304 283.03 203.359 284.016L203.398 284.756C203.431 285.426 203.511 286.099 203.345 286.761C203.202 287.331 202.9 287.848 202.635 288.371C202.11 289.407 200.67 289.236 200.104 288.371L199.939 288.119C199.564 287.539 199.252 287 199.135 286.278C199.021 285.578 199.016 284.846 198.965 284.139C198.871 282.84 198.791 281.539 198.7 280.239C198.508 277.502 198.293 274.767 198.055 272.035C197.583 266.64 197.078 261.25 196.457 255.869C195.354 246.308 193.969 236.772 192.337 227.286C190.743 218.02 188.727 208.848 186.624 199.688L186.406 198.74C182.724 182.746 177.049 164.328 161.71 155.781ZM74.522 218.408C74.5823 218.248 74.8413 218.212 74.885 218.408C75.4364 220.892 75.4909 223.45 75.5752 225.993C75.6582 228.501 75.6549 231.021 75.6183 233.53C75.4835 242.754 75.2304 251.971 75.0116 261.193C74.9021 265.806 74.7994 270.42 74.7206 275.034C74.6909 276.764 74.6658 278.495 74.645 280.225L74.6195 282.507C74.6069 283.517 74.5804 284.513 74.4574 285.521C74.3763 286.184 74.2035 286.817 73.8375 287.385C73.5779 287.788 73.2078 287.993 72.847 288.267L72.7795 288.32C72.3194 288.683 71.8347 288.686 71.379 288.32L71.2467 288.215C70.8114 287.874 70.4352 287.608 70.1573 287.07C69.7706 286.321 69.7087 285.507 69.643 284.682C69.5433 283.431 69.6094 282.161 69.6223 280.907C69.6481 278.39 69.683 275.873 69.7271 273.356C69.8892 264.126 70.2094 254.894 70.7932 245.681C71.0682 241.341 71.441 236.987 71.9412 232.665L72.0365 231.855C72.1882 230.583 72.3266 229.289 72.4825 227.991C70.1549 226.353 68.109 224.366 66.3644 222.111C66.2359 221.945 66.4474 221.713 66.6025 221.873C68.3851 223.72 70.4292 225.192 72.692 226.35C73.0628 223.631 73.5726 220.928 74.522 218.408ZM113.406 136.133C113.438 136.108 113.488 136.097 113.519 136.133C114.019 136.716 113.917 137.608 113.934 138.348L113.935 138.416C113.971 139.498 113.978 140.575 113.974 141.657L113.963 145.1C113.962 145.573 113.923 146.066 113.948 146.542L113.96 146.727C114.223 146.996 114.345 147.385 114.256 147.776C114.24 148.277 113.978 148.696 113.596 148.958L114.415 150.121L115.235 151.283C116.925 153.681 118.633 156.057 120.414 158.389C122.23 160.766 124.166 163.054 126.193 165.254C127.184 166.329 128.191 167.389 129.221 168.425C129.64 168.846 130.069 169.257 130.494 169.672L130.916 170.09C131.166 170.339 131.479 170.586 131.645 170.902C131.743 171.089 131.765 171.549 131.8 171.625C132.112 172.313 131.579 173.409 130.692 173.066L130.733 173.039C130.894 172.927 130.79 172.925 130.422 173.034C130.19 173.034 129.972 172.98 129.768 172.874L129.708 172.841C129.421 172.695 129.165 172.413 128.932 172.187L128.874 172.132C128.342 171.633 127.834 171.104 127.324 170.582C126.258 169.493 125.217 168.381 124.209 167.24C122.197 164.962 120.291 162.591 118.485 160.148C116.646 157.658 114.936 155.042 113.466 152.317C112.908 151.283 112.397 150.229 111.906 149.163C110.952 148.857 110.73 147.841 110.797 146.697C110.444 145.877 110.127 145.04 109.939 144.184C109.914 144.067 110.065 143.956 110.155 144.059C110.46 144.406 110.743 144.775 111.014 145.154C111.178 144.352 111.386 143.614 111.483 143.143L111.907 141.066C109.522 140.942 106.909 141.922 105.265 143.637C105.177 144.084 104.833 144.404 104.498 144.822C104.115 145.299 103.781 145.835 103.532 146.395C102.98 147.637 103.292 149.467 102.219 150.378C102.108 150.473 101.983 150.539 101.854 150.58C102.363 153.075 102.132 155.825 102.121 158.357L102.12 158.58C102.123 161.414 102.028 164.249 101.919 167.081L101.807 169.883C101.663 173.62 101.569 177.359 101.932 181.075C103.59 179.607 105.304 178.205 107.076 176.87C108.242 175.992 109.431 175.145 110.642 174.33L111.625 173.673C112.804 172.882 114.011 172.068 115.302 171.502C116.99 170.762 118.595 171.016 120.225 171.776C121.848 172.532 123.422 173.411 125.014 174.23C126.633 175.064 128.256 175.891 129.877 176.719C130.952 177.268 132.525 177.764 133.313 178.775C133.364 178.551 133.422 178.328 133.491 178.106C133.412 177.767 133.443 177.401 133.633 177.052C136.28 172.186 138.729 167.204 141.161 162.228C142.392 159.71 143.563 157.162 144.796 154.645L145.995 152.194C146.195 151.785 146.396 151.377 146.598 150.97C146.901 150.36 147.216 149.756 147.522 149.148C147.651 148.891 147.813 148.635 147.939 148.376L147.998 148.246C148.001 148.239 148.292 147.325 148.067 147.412L148.048 147.421C147.934 147.486 147.842 147.342 147.916 147.25C148.233 146.858 148.675 147.205 148.856 147.569C149.355 148.568 148.441 150.138 148.09 151.095L148.07 151.149C146.979 154.239 145.744 157.27 144.478 160.292C142.05 166.084 139.443 171.788 136.841 177.501L136.81 177.599C137.365 177.174 137.958 176.788 138.465 176.412C139.744 175.464 141.062 174.562 142.376 173.663C144.788 172.015 147.265 170.476 149.782 168.997L150.287 168.702C151.544 167.969 152.79 167.375 154.283 167.595C155.67 167.799 156.959 168.545 158.212 169.15L158.342 169.212L162.213 171.053C161.799 169.402 161.351 167.759 160.883 166.122C159.972 162.93 158.968 159.763 157.88 156.626C156.864 153.694 155.766 150.795 154.604 147.918L154.254 147.055C153.78 145.87 153.309 144.579 151.955 144.214C150.602 143.849 149.05 144.39 147.813 143.618C147.7 143.548 147.714 143.363 147.851 143.329L148.614 143.136C150.047 142.78 151.726 142.421 153.081 142.768C154.556 143.146 155.776 144.384 156.491 145.67C157.286 147.102 157.847 148.704 158.451 150.231L158.546 150.471C159.239 152.199 159.906 153.937 160.543 155.685C161.818 159.181 162.978 162.719 164.029 166.289C164.535 168.009 165.015 169.738 165.477 171.471C165.61 171.969 165.828 172.573 166.008 173.203C166.214 173.404 166.409 173.628 166.591 173.884C166.894 174.308 166.677 174.805 166.3 175.059C166.285 175.492 166.189 175.9 165.959 176.25C165.06 177.615 162.683 177.263 162.78 175.428C162.794 175.147 162.904 174.879 163.069 174.652L163.065 174.616L163.046 174.549C162.633 174.351 162.219 174.13 161.782 173.914L157.719 171.906C156.543 171.324 155.238 170.425 153.93 170.204C152.71 169.997 151.423 170.906 150.374 171.455L150.306 171.49C147.772 172.789 145.257 174.132 142.751 175.485C141.528 176.146 140.321 176.835 139.103 177.503C138.084 178.063 136.984 178.865 135.839 179.181C135.35 179.561 134.769 179.51 134.302 179.223C134.516 180.545 134.503 181.901 134.568 183.253C134.656 185.06 134.67 186.872 134.699 188.681L134.711 189.36C134.788 193.36 134.829 197.361 134.844 201.361C134.898 215.608 134.741 229.859 134.704 244.106C134.685 251.264 134.543 258.428 134.358 265.583C134.279 268.615 134.114 271.643 133.936 274.671L133.838 276.322C133.631 279.806 133.508 283.329 132.864 286.766C132.78 287.214 132.021 287.226 131.947 286.766C131.353 283.083 131.32 279.319 131.206 275.593L131.182 274.848C131.045 270.847 130.98 266.849 130.994 262.846C131.045 248.594 131.415 234.35 131.718 220.102C131.87 212.943 131.973 205.781 132.209 198.624C132.328 195.043 132.462 191.465 132.621 187.885C132.692 186.287 132.76 184.691 132.866 183.095L132.914 182.411C132.947 181.965 132.973 181.524 133.006 181.087C131.564 181.614 130.246 180.639 128.949 179.972C127.455 179.203 125.961 178.432 124.466 177.665L122.969 176.898L119.975 175.37C118.626 174.681 117.588 173.996 116.149 174.804C110.969 177.712 106.208 181.581 101.893 185.64C101.066 186.419 99.3176 186.21 99.108 184.905C98.2128 179.33 98.7573 173.675 99.2143 168.084L99.3828 166.008C99.5869 163.529 99.8093 161.049 100.106 158.58C100.238 157.475 100.37 156.371 100.516 155.269L100.628 154.442C100.811 153.136 100.93 151.837 101.319 150.583C101.197 150.544 101.078 150.478 100.973 150.378C99.8029 149.268 100.367 147.341 100.901 146.02C101.428 144.716 102.232 143.578 103.238 142.599C103.458 142.385 103.768 142.247 104.078 142.24C106.519 140.623 109.197 139.815 111.984 140.698C112.062 140.324 112.142 139.95 112.226 139.577L112.311 139.205C112.528 138.28 112.609 136.751 113.406 136.133ZM138.422 282.222C139.179 282.014 140.008 282.233 140.563 282.788C141.118 283.344 141.338 284.173 141.129 284.931C141.025 285.304 140.836 285.627 140.563 285.902C140.308 286.156 140.011 286.337 139.671 286.445L139.592 286.469L139.468 286.52C139.088 286.622 138.709 286.622 138.329 286.52C137.966 286.418 137.651 286.235 137.384 285.969C137.118 285.702 136.935 285.386 136.833 285.023C136.731 284.643 136.731 284.264 136.833 283.884L136.884 283.76C136.989 283.387 137.178 283.063 137.45 282.788C137.725 282.515 138.049 282.327 138.422 282.222ZM183.394 206.719C183.518 206.577 183.72 206.76 183.643 206.912C182.463 209.225 181.148 211.522 179.856 213.777C179.959 214.402 180.062 215.022 180.18 215.626C180.684 218.202 181.3 220.731 181.702 223.331C183.148 232.677 183.898 242.124 184.541 251.553C185.187 261.017 185.27 270.484 185.367 279.966C185.375 280.788 184.743 281.743 183.896 281.898C183.509 281.969 183.219 281.955 182.832 281.898C181.951 281.768 181.399 280.759 181.362 279.966C181.109 274.667 180.769 269.374 180.375 264.083C179.677 254.703 179.251 245.298 178.687 235.907L178.488 232.625C178.275 229.069 178.08 225.511 178.017 221.949C177.974 219.59 178.101 217.231 178.023 214.874C177.951 212.698 177.731 210.332 178.21 208.194C178.228 208.114 178.355 208.094 178.391 208.171C178.89 209.221 179.206 210.362 179.449 211.527C180.734 209.901 182.043 208.272 183.394 206.719ZM99.2258 149.244C99.4062 149.23 99.399 149.501 99.2258 149.521C96.7041 149.814 94.2681 150.841 91.887 151.713L91.6831 151.788C89.2776 152.661 86.9323 153.676 84.6753 154.886C80.2626 157.252 76.2105 160.303 72.6278 163.796C58.3239 177.739 51.8053 197.846 47.0287 216.741C44.3748 227.239 42.4875 237.915 41.2643 248.672C40.6594 253.992 40.2318 259.333 39.9825 264.681C39.8549 267.422 39.7744 270.166 39.7408 272.91C39.7235 274.316 39.7184 275.721 39.7201 277.127C39.721 277.771 39.8359 278.582 39.6637 279.207C39.504 279.787 39.0536 280.297 38.7204 280.78C38.3255 281.352 37.6159 281.322 37.2155 280.78L37.0679 280.582C36.6409 280.016 36.2232 279.474 36.1622 278.733C36.0969 277.94 36.1429 277.121 36.14 276.324C36.1332 274.717 36.1531 273.111 36.1852 271.505C36.2471 268.426 36.3684 265.349 36.5486 262.275C36.9145 256.037 37.5168 249.812 38.3792 243.623C39.9122 232.622 42.2099 221.726 45.2196 211.035C48.0591 200.95 51.4229 190.894 56.2148 181.552C60.6641 172.878 66.501 164.809 74.203 158.747C77.7846 155.928 81.6836 153.579 85.8872 151.81C88.0072 150.917 90.2336 150.189 92.4977 149.773C94.7368 149.363 96.966 149.42 99.2258 149.244ZM138.856 264.395C139.256 264.392 139.702 264.48 140.045 264.702L140.503 265.056C140.627 265.216 140.751 265.376 140.874 265.536C141.161 265.91 141.199 266.515 141.139 266.96C141.126 267.257 141.037 267.534 140.874 267.79L140.525 268.242C140.19 268.516 139.91 268.711 139.504 268.843C139.291 268.912 139.087 268.926 138.883 268.916L138.815 268.911L138.856 268.917L138.784 268.909C138.718 268.903 138.651 268.896 138.585 268.887C138.539 268.881 138.494 268.878 138.448 268.871C138.404 268.868 138.362 268.866 138.318 268.87C137.802 268.919 137.283 268.626 136.916 268.289C136.586 267.986 136.289 267.343 136.336 266.887L136.355 266.696C136.39 266.375 136.418 266.249 136.555 265.926C136.687 265.612 136.872 265.335 137.123 265.1C137.605 264.652 138.195 264.4 138.856 264.395ZM137.257 240.876C137.943 240.128 139.12 240.073 139.97 240.525C140.177 240.636 140.367 240.813 140.549 240.96C141.009 241.332 141.19 242.003 141.215 242.568C141.24 243.127 140.946 243.791 140.549 244.177L140.453 244.27C140.216 244.501 139.877 244.701 139.546 244.762C139.012 244.86 138.563 244.857 138.065 244.647C137.638 244.467 137.269 244.177 137.019 243.783L136.978 243.717C136.961 243.689 136.945 243.661 136.929 243.632L136.907 243.589C136.431 242.673 136.559 241.636 137.257 240.876ZM137.612 217.232C137.922 217.135 138.23 217.121 138.539 217.19C138.749 217.191 138.945 217.244 139.126 217.349C139.323 217.404 139.494 217.504 139.639 217.648C139.814 217.751 139.953 217.89 140.056 218.065C140.262 218.29 140.4 218.553 140.472 218.856L140.555 219.474L140.472 220.093L140.238 220.648C140.173 220.732 140.109 220.817 140.043 220.9C139.94 221.076 139.8 221.215 139.625 221.319C139.511 221.432 139.381 221.517 139.235 221.576C138.717 221.947 138.027 222.068 137.414 221.899C137.05 221.797 136.734 221.612 136.465 221.346C136.199 221.077 136.015 220.761 135.913 220.397L135.871 220.106C135.817 219.716 135.808 219.5 135.918 219.004C135.967 218.786 136.107 218.478 136.181 218.349C136.495 217.796 137.009 217.417 137.612 217.232ZM164.45 200.222C165.338 200.216 166.225 200.217 167.113 200.227L167.778 200.236C168.893 200.254 169.847 200.139 170.723 200.912C171.359 201.474 171.079 202.415 170.475 202.838C169.561 203.479 168.414 203.157 167.362 203.086C166.254 203.012 165.144 202.95 164.034 202.9C161.885 202.804 159.735 202.743 157.583 202.733C155.437 202.724 153.287 202.744 151.14 202.779C148.956 202.814 146.682 203.018 144.51 202.792C144.212 202.761 144.145 202.368 144.439 202.266C146.486 201.558 148.788 201.328 150.933 201.058C153.145 200.778 155.357 200.58 157.583 200.452C159.87 200.321 162.16 200.238 164.45 200.222ZM137.608 193.266L137.682 193.267C138.072 193.268 138.438 193.36 138.779 193.543L138.851 193.583L139.32 193.946C139.607 194.235 139.806 194.576 139.916 194.969L139.999 195.585C140.011 195.904 139.944 196.202 139.8 196.478C139.706 196.766 139.546 197.014 139.32 197.224C139.11 197.45 138.862 197.61 138.575 197.704C138.32 197.838 138.046 197.905 137.755 197.905L137.682 197.903C137.263 197.902 136.873 197.796 136.512 197.587L136.043 197.224C135.756 196.935 135.557 196.594 135.447 196.201L135.364 195.585C135.352 195.266 135.419 194.968 135.564 194.692C135.657 194.405 135.817 194.156 136.043 193.946C136.253 193.72 136.501 193.56 136.789 193.467C137.044 193.333 137.317 193.265 137.608 193.266ZM144.479 138.807C144.978 138.083 145.883 138.727 145.753 139.308C145.787 140.942 145.871 142.527 146.242 144.127C146.412 144.86 146.635 145.593 146.979 146.264L147.123 146.547C147.568 147.426 147.914 148.256 147.315 149.22C147.032 149.675 146.522 150.017 145.968 149.993C143.514 149.887 143.177 146.47 143.028 144.563C142.874 142.598 143.353 140.439 144.479 138.807Z" fill="black"/>
<path fill-rule="evenodd" clip-rule="evenodd" d="M161.372 73.4595C155.022 64.7167 143.331 62.2025 133.192 64.3289C113.371 67.9434 94.4344 83.0712 90.9322 103.645C85.4682 116.092 88.9574 135.696 104.848 137.161C107.11 137.289 109.351 136.768 111.618 137.049C125.45 139.259 141.795 148.721 154.039 137.563C154.652 138.002 155.461 138.215 156.149 137.949C161.361 135.934 161.605 130.106 162.05 125.315C162.624 119.124 163.162 112.93 163.664 106.733C163.843 96.0471 168.077 82.6934 161.372 73.4595Z" fill="white"/>
<path fill-rule="evenodd" clip-rule="evenodd" d="M122.943 51.1821C131.288 50.7383 146.664 54.562 153.945 59.045C165.807 66.349 166.726 80.9191 166.242 83.4384C166.058 84.3998 165.471 85.2896 164.552 84.9939C165.332 91.6132 165.27 95.3966 165.401 102.054L165.491 106.499C165.55 109.462 165.6 112.426 165.613 115.39C165.913 115.278 166.208 115.415 166.318 115.703C166.346 115.773 166.251 115.811 166.204 115.771C165.676 115.31 166.052 116.36 166.234 116.574C166.485 116.868 166.904 117.145 167.197 117.396L167.995 118.087L168.792 118.776C169.823 119.665 170.819 120.556 171.78 121.514L172.042 121.777C173.793 123.557 175.988 125.279 177.078 127.581C178.12 129.779 177.799 132.271 176.068 134.023C175.439 134.659 174.704 135.145 173.905 135.513C175.327 137.855 175.534 140.951 174.051 143.36C172.565 145.778 169.709 147.044 166.958 146.85C166.874 147.194 166.743 147.53 166.57 147.849C165.479 149.855 163.309 150.115 161.252 150.008L161.172 150.003C156.541 149.737 152.085 148.577 148.029 146.321C146.622 146.417 145.367 145.26 145.092 143.992C144.353 143.965 143.609 143.903 142.851 143.817C140.601 143.557 138.294 143.073 136.31 141.93C136.006 141.754 136.147 141.291 136.485 141.283C138.902 141.228 141.321 141.395 143.734 141.133C145.948 140.894 148.308 140.283 150.372 139.453C154.082 137.956 157.263 135.418 159.019 131.901C161.292 127.348 161.085 121.881 161.332 116.935C161.606 111.461 161.943 105.992 162.304 100.523L162.479 97.9015C162.829 92.792 163.118 90.0585 164.005 84.7551C161.332 84.9939 150.231 80.9966 146.778 74.4579C140.226 88.3679 107.028 82.6751 105.556 104.089C105.543 104.271 105.256 104.22 105.245 104.047L105.218 103.559C105.204 103.318 105.192 103.08 105.184 102.845L105.177 102.61L104.656 102.616C104.656 102.682 104.563 102.705 104.539 102.635C104.047 101.238 101.702 101.688 100.682 102.02C99.7627 102.32 98.8965 102.781 98.119 103.35C96.5577 104.491 95.3472 106.028 94.9458 107.948C94.1831 111.597 96.5049 115.312 99.5873 117.073C101.531 118.182 103.661 118.899 105.524 120.156C107.17 121.266 108.704 122.566 110.032 124.043C115.297 129.895 118.394 138.772 115.904 146.497C115.713 147.087 115.211 147.761 114.545 147.856C113.444 148.014 112.344 147.854 111.727 146.805C111.486 146.395 111.372 145.928 111.397 145.468C110.97 146.934 109.587 148.384 108.311 148.93C106.572 149.673 104.613 149.451 103.08 148.492L102.886 148.635C100.391 150.472 97.605 152.146 94.4091 151.808C92.0937 151.563 89.8204 150.384 88.5401 148.524C86.8373 149.481 85.0183 150.244 83.1422 150.764L82.9426 150.819C80.3615 151.522 77.0691 152.166 74.6598 150.738C72.3465 149.367 71.5775 146.372 72.1204 143.872C72.1859 143.574 72.2683 143.284 72.3697 143.003C70.6289 143.096 68.8901 142.929 67.238 142.418C65.55 141.896 63.9401 140.892 63.131 139.264C62.2183 137.423 62.4613 135.331 63.1415 133.457C64.2296 130.449 65.9789 127.773 68.157 125.442C70.2517 123.199 72.7783 121.295 75.4042 119.709L75.8469 119.444C78.2106 118.033 81.0612 116.381 83.8542 116.489C83.8458 116.453 83.8394 116.419 83.8352 116.384C83.4127 113.27 83.4613 110.096 83.362 106.957C83.2711 104.07 83.1676 101.183 83.1 98.2942C82.9901 93.3822 83.026 88.4495 83.6662 83.5716C84.2345 79.2431 85.257 75.0222 87.1225 71.0594C89.081 66.896 92.0303 63.3432 95.6725 60.5492C103.316 54.6842 113.413 51.6894 122.943 51.1821ZM96.9802 108.874C97.8126 107.304 99.7077 106.809 101.37 107.093C103.701 107.49 105.285 109.528 106.646 111.28C108.074 113.116 105.095 114.847 104.328 113.068L104.146 112.647C103.531 111.236 102.804 109.748 101.548 108.828C100.213 107.851 98.3281 107.708 97.1493 109.005C97.0648 109.1 96.9232 108.978 96.9802 108.874Z" fill="black"/>
<path fill-rule="evenodd" clip-rule="evenodd" d="M143.153 128.274C141.732 127.694 140.465 126.727 139.539 125.492C139.217 125.063 139.133 124.61 139.201 124.195C139.277 123.729 139.553 123.306 139.929 123.023C140.306 122.738 140.778 122.598 141.234 122.67C141.63 122.732 142.025 122.949 142.337 123.399L142.402 123.489C142.953 124.235 143.671 124.846 144.489 125.24C145.277 125.62 146.158 125.798 147.071 125.695C148.808 125.498 150.006 124.558 151.278 123.282C151.436 123.121 151.594 122.954 151.753 122.786C151.853 122.632 151.992 122.534 152.146 122.482C152.318 122.425 152.512 122.428 152.689 122.49C152.86 122.55 153.014 122.663 153.116 122.814C153.214 122.958 153.269 123.135 153.251 123.338C153.135 124.661 152.443 125.842 151.461 126.769C150.371 127.798 148.925 128.511 147.564 128.76C146.064 129.036 144.536 128.839 143.153 128.274ZM148.271 107.866C149.867 108.836 152.297 111.098 150.581 113.503C148.561 115.624 145.652 113.192 144.219 112.093C142.89 111.241 141.397 113.432 142.63 114.428C152.987 122.099 157.19 108.12 149.078 106.725C148.185 106.572 147.853 107.566 148.271 107.866ZM129.711 98.9426C129.887 96.7538 133.22 96.2568 133.551 98.4227C133.848 100.363 133.499 102.145 132.625 103.892C131.79 105.561 129.692 104.782 129.534 103.263C129.321 101.226 129.601 100.304 129.711 98.9426ZM155.077 97.9736C155.541 97.3649 156.212 96.9494 157.016 97.1842C159.527 97.9182 158.787 101.484 157.905 103.22C157.426 104.163 155.877 104.402 155.177 103.572C154.036 102.218 153.49 99.5154 154.94 98.1822C154.979 98.1133 155.023 98.0438 155.077 97.9736ZM132.59 89.3651L132.986 89.2957C134.213 89.0834 135.739 88.8794 136.607 89.8662C137.067 90.3895 137.226 91.3622 136.607 91.8631C135.518 92.7444 134.315 92.4028 133.011 92.4775C131.936 92.5392 130.903 92.7171 129.867 93.0132C127.596 93.6627 125.745 94.8484 123.805 96.1503C123.55 96.3211 123.29 95.9954 123.412 95.7572C124.532 93.5627 126.702 91.7601 128.876 90.6613C130.036 90.0748 131.306 89.5883 132.59 89.3651ZM152.788 88.3821L153.091 88.4442C156.395 89.1351 160.687 90.515 162.252 93.7613C162.311 94.2203 162.248 94.3187 162.197 94.3829L162.18 94.4043C162.138 94.4592 162.104 94.5349 161.905 94.5974C161.85 94.5842 161.794 94.5703 161.738 94.5555C161.021 94.3675 160.453 94.1085 159.904 93.8398L159.309 93.5462C158.618 93.2073 157.921 92.8807 157.182 92.6396C155.605 92.1252 153.984 91.7628 152.337 91.5693C151.98 91.5274 151.637 91.4069 151.365 91.2004C151.108 91.0044 150.911 90.733 150.822 90.3722C150.706 89.9053 150.739 89.5518 150.989 89.1306C151.178 88.8143 151.447 88.5951 151.756 88.4692C152.072 88.3408 152.431 88.3106 152.788 88.3821Z" fill="black"/>
</svg>
