<svg width="349" height="301" viewBox="0 0 349 301" fill="none" xmlns="http://www.w3.org/2000/svg">
<mask id="path-1-inside-1_291_10443" fill="white">
<path d="M42.0568 16.1078C74.9257 16.1078 252.751 -20.1341 312.557 16.1068C360.777 45.3274 346.057 182.569 346.057 209.071C346.057 268.441 228.427 280.069 169.057 280.069C163.141 280.069 156.761 279.916 150.068 279.586L116.823 300.493L116.471 300.714L116.189 300.409L90.0529 272.033C44.6821 262.339 3.55679 242.526 3.55679 205.569C3.55673 146.198 -17.3136 16.1079 42.0568 16.1078Z"/>
</mask>
<path d="M42.0568 16.1078V13.1078H42.0568L42.0568 16.1078ZM312.557 16.1068L314.112 13.5412V13.5411L312.557 16.1068ZM346.057 209.071L343.057 209.071V209.071H346.057ZM169.057 280.069V283.069V280.069ZM150.068 279.586L150.215 276.59L149.271 276.544L148.47 277.047L150.068 279.586ZM116.823 300.493L118.42 303.032L118.42 303.032L116.823 300.493ZM116.471 300.714L114.267 302.749L115.958 304.581L118.068 303.254L116.471 300.714ZM116.189 300.409L113.982 302.441L113.984 302.444L116.189 300.409ZM90.0529 272.033L92.2595 270L91.613 269.298L90.6797 269.099L90.0529 272.033ZM3.55679 205.569H6.55679V205.569L3.55679 205.569ZM42.0568 16.1078V19.1078C50.5216 19.1078 68.0774 16.7999 90.1579 13.9872C112.386 11.1558 139.503 7.76625 167.447 5.50721C195.403 3.24725 224.1 2.12653 249.484 3.81125C274.965 5.50239 296.69 9.99968 311.002 18.6725L312.557 16.1068L314.112 13.5411C298.521 4.09352 275.59 -0.469314 249.882 -2.17558C224.076 -3.88826 195.049 -2.74368 166.964 -0.473277C138.867 1.79805 111.628 5.2039 89.3998 8.03532C67.0247 10.8855 50.0264 13.1078 42.0568 13.1078V16.1078ZM312.557 16.1068L311.002 18.6725C322.125 25.4129 329.949 38.6191 335.269 55.7479C340.566 72.8028 343.227 93.2501 344.394 113.779C346.741 155.036 343.057 195.318 343.057 209.071L346.057 209.071H349.057C349.057 196.322 352.733 154.732 350.384 113.438C349.204 92.6908 346.504 71.6925 340.999 53.9682C335.517 36.3177 327.098 21.411 314.112 13.5412L312.557 16.1068ZM346.057 209.071H343.057C343.057 222.762 336.331 233.824 324.891 242.857C313.379 251.945 297.25 258.83 279.011 263.945C242.558 274.168 198.617 277.069 169.057 277.069V280.069V283.069C198.867 283.069 243.426 280.156 280.631 269.722C299.22 264.509 316.209 257.355 328.609 247.566C341.079 237.72 349.057 225.065 349.057 209.071H346.057ZM169.057 280.069V277.069C163.192 277.069 156.861 276.917 150.215 276.59L150.068 279.586L149.92 282.583C156.661 282.914 163.09 283.069 169.057 283.069V280.069ZM150.068 279.586L148.47 277.047L115.226 297.953L116.823 300.493L118.42 303.032L151.665 282.126L150.068 279.586ZM116.823 300.493L115.226 297.953L114.874 298.175L116.471 300.714L118.068 303.254L118.42 303.032L116.823 300.493ZM116.471 300.714L118.675 298.679L118.393 298.373L116.189 300.409L113.984 302.444L114.267 302.749L116.471 300.714ZM116.189 300.409L118.395 298.376L92.2595 270L90.0529 272.033L87.8462 274.065L113.982 302.441L116.189 300.409ZM90.0529 272.033L90.6797 269.099C68.1603 264.288 46.9647 257.014 31.471 246.539C16.0364 236.105 6.55679 222.73 6.55679 205.569H3.55679H0.556789C0.556789 225.365 11.6399 240.375 28.1106 251.51C44.5222 262.605 66.5747 270.084 89.4261 274.966L90.0529 272.033ZM3.55679 205.569L6.55679 205.569C6.55677 190.626 5.24394 171.22 4.21967 150.768C3.19133 130.236 2.44576 108.543 3.5383 88.7396C4.63455 68.8691 7.56899 51.2451 13.6913 38.6758C16.7349 32.4273 20.5051 27.5571 25.1074 24.2498C29.6753 20.9671 35.2216 19.1078 42.0568 19.1078L42.0568 16.1078L42.0568 13.1078C34.0494 13.1078 27.2605 15.3139 21.606 19.3774C15.9857 23.4163 11.646 29.1733 8.29719 36.0484C1.63479 49.7264 -1.34514 68.3356 -2.45259 88.409C-3.56375 108.55 -2.80238 130.511 -1.77282 151.069C-0.739217 171.707 0.556773 190.826 0.556789 205.569H3.55679Z" fill="black" mask="url(#path-1-inside-1_291_10443)"/>
</svg>
